<svg xmlns="http://www.w3.org/2000/svg" width="90" height="90" viewBox="0 0 90 90"><path fill="#C6C6C5" d="M65.55 50.33c-.35 0-.68-.44-1.02-.39.18-.61.27-1.5.27-2.17 0-3.89-3.15-7.16-7.04-7.16-.74 0-1.45.06-2.12.27-.83-2.97-3.55-5.17-6.78-5.17-3.89 0-7.04 3.14-7.04 7.03 0 .29.02.56.06.84-.38-.06-.77-.11-1.17-.11a7.04 7.04 0 0 0-7.04 6.99 6.989 6.989 0 0 0-3.71-1.06c-3.89 0-7.04 5.04-7.04 8.93 0 .51.06 1.66.16 2.2.68 3.55 3.5 7.99 6.88 7.99h35.57c3.42 0 6.27-4.53 6.91-8.12.09-.49.13-1.29.13-1.76.02-3.9-3.13-8.31-7.02-8.31z"/><g fill="#868686"><path d="M18.63 62.5c-6.18 0-10.97-6.86-10.97-12.77 0-6 4.69-12.7 10.97-12.7 1.41 0 2.66.04 3.81.46.12.04.24.07.37.07.18 0 .35-.04.51-.13.27-.15.46-.4.52-.7 1.09-5.18 5.61-8.94 10.73-8.94.56 0 1.11-.45 1.13-1.01.23-5.77 5.05-10.3 10.96-10.3 4.31 0 8.37 2.74 10.09 6.83.17.39.55.64.97.64.06 0 .12 0 .18-.01.6-.1 1.25-.1 1.94-.1 6.04 0 10.95 4.96 10.95 11.05 0 .43-.03.9-.09 1.36-.02.14-.01.29.03.42-.34 2.77-1.61 5.22-3.62 7.01-1.6-3.72-5.25-6.18-9.34-6.18h-.2c-1.85-3-5.13-4.93-8.7-4.93-4.76 0-8.9 3.34-9.94 7.9-3.31.59-6.13 2.8-7.51 5.86-.48-.07-.96-.11-1.44-.11-5.74 0-10.2 6.5-10.2 12.09 0 .02.02 2.47.21 3.47.04.23.1-.28.16.72h-1.52zM75.7 58.97c0-4.37-2.86-9.6-7.29-11.27 3.26-2.3 5.45-5.74 6.15-9.7 4.37 1.54 7.51 5.98 7.51 10.8 0 4.15-2.38 8.07-6.38 10.2.01 0 .01-.02.01-.03z"/></g></svg>