<svg xmlns="http://www.w3.org/2000/svg" width="90" height="90" viewBox="0 0 90 90"><path fill="none" stroke="#000" stroke-width="2" stroke-linecap="round" stroke-linejoin="round" stroke-miterlimit="10" d="M64.63 70.5c3.7 0 6.69-5.49 6.69-9.19s-3-7.94-6.69-7.94c-.33 0-.65-.59-.96-.55.17-.58.26-1.51.26-2.15 0-3.7-3-6.85-6.69-6.85-.7 0-1.38.03-2.01.23-.79-2.82-3.37-4.93-6.44-4.93-3.7 0-6.69 2.98-6.69 6.67 0 .27.02.53.05.79-.36-.06-.73-.11-1.11-.11-3.68 0-6.66 2.97-6.69 6.64a6.61 6.61 0 0 0-3.52-1.01c-3.7 0-6.69 5.49-6.69 9.19 0 3.7 3 9.19 6.69 9.19h33.8z"/><g fill="none" stroke="#000" stroke-width="2" stroke-linecap="round" stroke-linejoin="round" stroke-miterlimit="10"><path d="M68.79 40.02a9.796 9.796 0 0 1-6.2 6.28M71.2 60.93c5.01-.55 8.91-5.35 8.91-10.49 0-5.48-4.44-10.24-9.93-10.24-.49 0-.96-.11-1.43-.04.25-.87.39-1.86.39-2.8 0-5.48-4.44-9.97-9.93-9.97-1.04 0-2.04.14-2.99.44-1.17-4.18-5-7.26-9.55-7.26-5.48 0-9.93 4.44-9.93 9.92 0 .4.03.8.08 1.19-.54-.09-1.08-.15-1.64-.15-5.46 0-9.88 4.41-9.92 9.86a9.92 9.92 0 0 0-5.23-1.5c-5.48 0-9.93 5.32-9.93 10.8s4.44 10.8 9.93 10.8h3.66"/></g></svg>