<svg xmlns="http://www.w3.org/2000/svg" width="90" height="90" viewBox="0 0 90 90"><g fill="none" stroke="#000" stroke-width="2" stroke-linecap="round" stroke-linejoin="round" stroke-miterlimit="10"><path d="M32.96 74.02c-.33-.53-.62-1.1-.85-1.7M40.46 78.66a5.43 5.43 0 0 1-.55-.06c-.61-.08-1.2-.22-1.77-.41M48.4 75.16c-.51.55-1.19 1.19-2.03 1.77M51.01 67.48c.06.77.06 1.59-.06 2.43M47.24 59.66c.62.52 1.18 1.09 1.68 1.78M39.89 55.55c.68.26 1.37.56 2.07.9M31.2 53.51c.83.11 1.67.24 2.53.39M22.48 52.88c.84-.03 1.63-.02 2.38 0M14.95 53.88c.87-.23.92-.21 1.89-.39M8.15 56.19c.54-.24 1.14-.49 1.8-.75M39.43 68.05c.01.56-.09 1.15-.33 1.76M34.11 62.05c.71.37 1.37.77 1.97 1.19M26.01 58.95c.63.18 1.27.37 1.91.58M18.09 57.14s.71.11 1.88.35"/></g><g fill="none" stroke="#000" stroke-width="2" stroke-linecap="round" stroke-linejoin="round" stroke-miterlimit="10"><path d="M75.04 39.32c.75-1.09.99-1.45 1.27-2.48M67.12 44.07c1.2-.62 1.16-.63 2.29-1.45M57.9 47.76c1.51-.39 1.02-.3 2.38-.71M47.22 48.84c1.66.25 1.31.15 2.63.3M74.03 48.7c.92-1 1.04-1.29 1.64-2.44M65.25 53.38c.54-.07.55-.09 1.12-.19.76-.15.77-.11 1.53-.29M55.22 52.98c.53.08.56.06 1.13.11.77.06.77.1 1.55.12"/></g><path fill="none" stroke="#000" stroke-width="2" stroke-linecap="round" stroke-linejoin="round" stroke-miterlimit="10" d="M21.88 38.92c3.27.93 15.83 2.01 23.54 1.23 4.62-.47 9.45-1.25 13.56-3.53 4.61-2.57 7.53-6.97 7.53-12.22 0-5.74-4.16-10.86-9.79-12.01-5.62-1.15-11.42 1.87-13.71 7.12-1.07 2.45-1.19 4.96-.57 7.49-.34-2.85 1.39-5.84 4.21-6.85 3.27-1.17 6.88.53 8.05 3.8.99 2.75-.06 5.73-2.36 7.31-3.57 2.63-10.22 4.81-13.67 5.56-4.55.98-12.17 1.56-16.79 2.1"/></svg>