<svg xmlns="http://www.w3.org/2000/svg" width="90" height="90" viewBox="0 0 90 90"><path fill="#FFEDBA" d="M46.24 16.32c-.44-.03-.86.19-1.08.58-.21.39-.17.87.1 1.22 2.14 2.75 3.26 6.04 3.26 9.5 0 8.56-6.96 15.52-15.52 15.52-3.28 0-6.43-1.03-9.11-2.97-.36-.26-.84-.29-1.22-.06-.38.22-.6.65-.55 1.09 1.3 11.29 10.86 19.81 22.23 19.81 12.35 0 22.39-10.04 22.39-22.39.01-11.55-9-21.34-20.5-22.3z"/><path fill="none" stroke="#868686" stroke-width="3" stroke-linecap="round" stroke-linejoin="round" stroke-miterlimit="10" d="M9 71h72M81 60H9M81 49H9"/></svg>