<svg xmlns="http://www.w3.org/2000/svg" width="90" height="90" viewBox="0 0 90 90"><g fill="none" stroke="#000" stroke-width="2" stroke-linecap="round" stroke-linejoin="round" stroke-miterlimit="10"><path d="M40.3 64.06l-5.25 5.24M54.17 64.06l-5.24 5.24M68.05 64.06L62.8 69.3M26.42 64.06l-5.24 5.24M41.8 76.06l-3.25 3.24M56.17 76.06l-3.24 3.24M28.42 76.06l-3.24 3.24"/></g><g fill="none" stroke="#000" stroke-width="2" stroke-linecap="round" stroke-linejoin="round" stroke-miterlimit="10"><path d="M71 51.79c5.05-.59 9-6.2 9-11.36 0-5.48-4.44-10.67-9.93-10.67-.49 0-.96-.33-1.43-.26.25-.87.39-1.96.39-2.91 0-5.48-4.44-10.02-9.93-10.02-1.04 0-2.04.12-2.99.41-1.17-4.18-5-7.27-9.55-7.27-5.48 0-9.93 4.43-9.93 9.91 0 .4.03.79.08 1.18-.54-.09-1.08-.15-1.64-.15-5.46 0-9.88 4.4-9.92 9.85-1.52-.94-3.3-1.5-5.23-1.5-5.48 0-9.93 6.26-9.93 11.74s4.44 11.74 9.93 11.74H24M68.68 29.14a9.795 9.795 0 0 1-5.43 5.99"/></g><path fill="none" stroke="#000" stroke-width="2" stroke-linecap="round" stroke-linejoin="round" stroke-miterlimit="10" d="M64.52 59.5c3.7 0 6.69-5.93 6.69-9.63 0-3.7-3-8.16-6.69-8.16-.33 0-.65-.7-.96-.66.17-.58.26-1.57.26-2.2 0-3.7-3-6.88-6.69-6.88-.7 0-1.38.02-2.01.22-.79-2.82-3.37-4.93-6.44-4.93-3.7 0-6.69 2.97-6.69 6.67 0 .27.02.53.05.79-.36-.06-.73-.11-1.11-.11-3.68 0-6.66 2.97-6.69 6.64a6.61 6.61 0 0 0-3.52-1.01c-3.7 0-6.69 5.93-6.69 9.63 0 3.7 3 9.63 6.69 9.63h33.8z"/></svg>