<svg xmlns="http://www.w3.org/2000/svg" width="90" height="90" viewBox="0 0 90 90"><g fill="none" stroke="#74B3C9" stroke-width="4" stroke-linecap="round" stroke-linejoin="round" stroke-miterlimit="10"><path d="M39.3 65.56l-3.25 3.24M53.17 65.56l-3.24 3.24M67.05 65.56L63.8 68.8M25.42 65.56l-3.24 3.24M42.8 75.56l-3.25 3.24M57.17 75.56l-3.24 3.24M29.42 75.56l-3.24 3.24"/></g><g fill="#868686"><path d="M19.93 56C14.05 56 9.5 49.22 9.5 43.61c0-5.7 4.46-12.2 10.43-12.2 1.34 0 2.53-.03 3.62.38.11.04.23.03.35.03.17 0 .33-.06.48-.14.25-.14.44-.39.5-.68 1.04-4.92 5.33-8.5 10.2-8.5.54 0 1.05-.43 1.07-.96.22-5.49 4.8-9.79 10.42-9.79 4.1 0 7.95 2.61 9.59 6.49.16.38.52.61.92.61.05 0 .11 0 .17-.01.57-.1 1.19-.1 1.84-.1 5.74 0 10.41 4.71 10.41 10.5 0 .41-.03.85-.09 1.29-.02.14-.01.27.03.4-.32 2.63-1.53 5.1-3.44 6.8C64.48 34.2 61.01 32 57.12 32h-.19c-1.76-3-4.87-4.83-8.26-4.83-4.52 0-8.46 3.1-9.45 7.44-3.14.56-5.83 2.62-7.14 5.54-.45-.07-.91-.12-1.37-.12-5.46 0-9.69 6.17-9.69 11.48 0 .02.02 2.6.2 3.55.04.22.09-.07.15.93h-1.44zM74 52.13c0-4.16-2.64-9.12-6.85-10.71 3.1-2.18 5.22-5.45 5.89-9.21 4.15 1.46 7.08 5.69 7.08 10.27 0 3.94-2.12 7.67-6.12 9.69v-.04z"/></g><path fill="#C6C6C5" d="M64.52 43.91c-.33 0-.65-.42-.96-.37.17-.58.26-1.42.26-2.06 0-3.7-3-6.8-6.69-6.8-.7 0-1.38.05-2.01.25-.79-2.82-3.37-4.92-6.44-4.92a6.675 6.675 0 0 0-6.64 7.48c-.36-.06-.73-.1-1.11-.1-3.68 0-6.66 2.97-6.69 6.64a6.61 6.61 0 0 0-3.52-1.01c-3.7 0-6.69 4.79-6.69 8.49 0 .48.05 1.49.15 1.99.65 3.38 3.33 7.5 6.54 7.5h33.81c3.25 0 5.96-4.21 6.56-7.62.08-.47.13-1.18.13-1.62-.01-3.7-3.01-7.85-6.7-7.85z"/></svg>