<svg xmlns="http://www.w3.org/2000/svg" width="90" height="90" viewBox="0 0 90 90"><g fill="none" stroke="#74B3C9" stroke-width="4" stroke-linecap="round" stroke-linejoin="round" stroke-miterlimit="10"><path d="M52.35 69.14l-9.5 9.5M36.97 69.14l-3.24 3.24"/></g><path fill="#C6C6C5" d="M75.19 41.14c-.6 6.15-5.29 11.45-11.67 12.45-.42.07-.83.11-1.25.14l-.9.02a1.451 1.451 0 0 1 0-2.9l.84.03c.29-.02.59.02.88-.03 5.19-.81 8.94-5.21 9.32-10.23.03-.3.04-.61.04-.91 0-6.09-4.96-11.05-11.05-11.05-.64 0-1.28.03-1.91.15-1.72-4-5.71-6.74-10.15-6.74-5.93 0-10.78 4.46-11.04 10.46h-.02c-5.27 0-9.72 3.84-10.8 8.81-1.21-.44-2.48-.57-3.78-.57-6.2 0-11.05 4.78-11.05 10.88 0 6.1 4.85 10.88 11.05 10.88h48.24c6.2 0 11.05-4.78 11.05-10.88.01-4.96-3.29-9.13-7.8-10.51z"/><g fill="#FFEDBA"><path d="M12.71 39.05a16.863 16.863 0 0 1-3.65-7.74c2.24 1.34 4.77 2.05 7.39 2.05 7.96 0 14.43-6.48 14.43-14.43 0-2.79-.79-5.45-2.28-7.77 4.86.77 9.25 3.72 11.9 7.99-3.41 1.85-6.08 4.94-7.38 8.59-4.15 1.04-7.74 3.78-9.86 7.52h-.3c-3.82-.01-7.4 1.33-10.25 3.79z"/><path d="M31.42 13.46c2.73 1.05 5.15 2.86 6.95 5.22a17.475 17.475 0 0 0-6.38 7.81c-.66.2-1.31.44-1.93.71a15.78 15.78 0 0 0 2.33-8.28c-.01-1.89-.34-3.73-.97-5.46m-20 20.58c1.61.54 3.3.81 5.03.81.14 0 .29 0 .43-.01-1.38.52-2.68 1.22-3.9 2.08-.62-.9-1.14-1.87-1.56-2.88M27.4 9.5c-.34 0-.66.18-.82.49-.18.32-.14.72.08 1.02a12.79 12.79 0 0 1 2.72 7.91c0 7.13-5.8 12.93-12.93 12.93-2.74 0-5.36-.86-7.59-2.48a.928.928 0 0 0-1.02-.05c-.32.19-.5.54-.46.91a18.55 18.55 0 0 0 5.25 10.96c2.6-2.73 6.25-4.44 10.32-4.44.4 0 .79.03 1.18.06 1.93-3.99 5.66-6.95 10.15-7.8 1.22-4.19 4.31-7.57 8.31-9.2-2.84-5.66-8.47-9.75-15.11-10.3-.03-.01-.05-.01-.08-.01z"/></g></svg>