<svg xmlns="http://www.w3.org/2000/svg" width="90" height="90" viewBox="0 0 90 90"><g fill="none" stroke="#000" stroke-width="2" stroke-linecap="round" stroke-linejoin="round" stroke-miterlimit="10"><path d="M53.41 67.64l-7.62 7.61M40.03 67.64l-3.24 3.24"/></g><g fill="none" stroke="#000" stroke-width="2" stroke-linecap="round" stroke-linejoin="round" stroke-miterlimit="10"><path d="M72.01 61.5c5.28 0 9.55-5.11 9.55-10.38 0-5.27-4.28-9.97-9.55-9.97-.47 0-.92-.16-1.38-.1.24-.83.37-1.82.37-2.73 0-5.27-4.28-9.6-9.55-9.6-1 0-1.96.13-2.87.41-1.13-4.02-4.81-6.99-9.19-6.99-5.27 0-9.55 4.27-9.55 9.54 0 .39.03.76.08 1.14-.52-.09-1.04-.14-1.58-.14-5.25 0-9.51 4.24-9.55 9.48a9.472 9.472 0 0 0-5.03-1.44c-5.27 0-9.55 5.11-9.55 10.38 0 5.27 4.28 10.38 9.55 10.38h48.25zM70.67 40.85a9.42 9.42 0 0 1-8.97 6.53"/></g><path fill="none" stroke="#000" stroke-width="2" stroke-linejoin="round" stroke-miterlimit="10" d="M43.94 23.45c-1.96-7.09-8.13-12.27-15.39-12.94a13.81 13.81 0 0 1 2.83 8.4c0 7.68-6.25 13.93-13.93 13.93-2.9 0-5.68-.89-8.05-2.58.65 5.23 3.56 9.86 8.02 12.7"/></svg>