<svg xmlns="http://www.w3.org/2000/svg" width="90" height="90" viewBox="0 0 90 90"><g fill="none" stroke="#000" stroke-width="2" stroke-linecap="round" stroke-linejoin="round" stroke-miterlimit="10"><path d="M45.87 63.21l-9.24 9.24M32.5 63.21l-9.24 9.24M59.25 63.21l-9.24 9.24"/></g><g fill="none" stroke="#000" stroke-width="2" stroke-linecap="round" stroke-linejoin="round" stroke-miterlimit="10"><path d="M69 57.5c5.25 0 9.5-5.48 9.5-10.73S74.25 36.65 69 36.65c-.47 0-.92-.26-1.37-.2.24-.82.37-1.85.37-2.76 0-5.25-4.25-9.58-9.5-9.58-1 0-1.96.12-2.86.4-1.12-4-4.78-6.96-9.14-6.96-5.25 0-9.5 4.25-9.5 9.49 0 .39.03.76.07 1.13-.51-.09-1.04-.14-1.57-.14-5.23 0-9.46 4.22-9.5 9.43a9.449 9.449 0 0 0-5-1.43c-5.25 0-9.5 5.48-9.5 10.73s4.25 10.73 9.5 10.73h48zM67.67 36.16c-1.21 3.77-4.75 6.5-8.92 6.5"/></g></svg>