<svg xmlns="http://www.w3.org/2000/svg" width="90" height="90" viewBox="0 0 90 90"><g fill="none" stroke="#000" stroke-width="2" stroke-linecap="round" stroke-linejoin="round" stroke-miterlimit="10"><path d="M54.35 71.14l-7.61 7.62M40.97 71.14l-3.24 3.24"/></g><g fill="none" stroke="#000" stroke-width="2" stroke-linecap="round" stroke-linejoin="round" stroke-miterlimit="10"><path d="M72.95 63.5c5.28 0 9.55-4.36 9.55-9.63 0-5.27-4.28-9.59-9.55-9.59-.47 0-.92.03-1.38.09.24-.83.37-1.72.37-2.63 0-5.27-4.28-9.55-9.55-9.55-1 0-1.96.15-2.87.44-1.13-4.02-4.81-6.98-9.19-6.98-5.27 0-9.55 4.28-9.55 9.55 0 .39.03.77.08 1.14-.52-.09-1.04-.14-1.58-.14-5.25 0-9.51 4.24-9.55 9.48a9.472 9.472 0 0 0-5.03-1.44c-5.27 0-9.55 4.36-9.55 9.63 0 5.27 4.28 9.63 9.55 9.63h48.25zM71.61 44.36a9.42 9.42 0 0 1-8.97 6.53"/></g><path fill="none" stroke="#000" stroke-width="2" stroke-linecap="round" stroke-miterlimit="10" d="M41.83 30.13c-2.14-4.18-6.49-7.05-11.51-7.05-7.14 0-12.92 5.78-12.92 12.92 0 3.39 1.31 6.48 3.44 8.78"/><g fill="none" stroke="#000" stroke-width="2" stroke-linecap="round" stroke-linejoin="round" stroke-miterlimit="10"><path d="M13.99 26.25L10.22 24M25.77 17.26l-1.01-4.02M40.5 19.31l1.98-3.33M11.29 40.47l-3.79.96"/></g></svg>