<svg xmlns="http://www.w3.org/2000/svg" width="90" height="90" viewBox="0 0 90 90"><path fill="#C6C6C5" d="M78.19 47.14c-.6 6.15-5.29 11.45-11.67 12.45-.42.07-.83.11-1.25.14l-.9.02a1.451 1.451 0 0 1 0-2.9l.84.03c.29-.02.59.02.88-.03 5.19-.81 8.94-5.21 9.32-10.23.03-.3.04-.61.04-.91 0-6.09-4.96-11.05-11.05-11.05-.64 0-1.28.03-1.91.15-1.72-4-5.71-6.83-10.15-6.83-5.93 0-10.78 4.38-11.04 10.38h-.02c-5.27 0-9.72 3.92-10.8 8.89-1.21-.44-2.48-.53-3.78-.53-6.2 0-11.05 4.72-11.05 10.82 0 6.1 4.85 10.82 11.05 10.82h48.24c6.2 0 11.05-4.7 11.05-10.8.01-4.96-3.29-9.04-7.8-10.42z"/><path fill="#FFB200" d="M25.71 42.74c.61 0 1.22.04 1.83.12 1.88-4.05 5.64-7.06 10.13-7.91.7-2.93 2.33-5.5 4.56-7.4-2.77-2.59-6.48-4.19-10.57-4.19-8.56 0-15.5 6.94-15.5 15.5 0 2.27.5 4.41 1.37 6.35 2.22-1.6 4.98-2.47 8.18-2.47z"/><path fill="none" stroke="#FFB200" stroke-width="4" stroke-linecap="round" stroke-linejoin="round" stroke-miterlimit="10" d="M26.24 17.35l-.98-3.88M43.6 19.96l2.44-4.12M12.92 28.48L8.8 26.04M9.64 45.32l-3.88.99"/></svg>