<svg xmlns="http://www.w3.org/2000/svg" width="90" height="90" viewBox="0 0 90 90"><g fill="none" stroke="#000" stroke-width="2" stroke-linecap="round" stroke-linejoin="round" stroke-miterlimit="10"><path d="M72.99 67.33c5.28 0 9.55-5.44 9.55-10.72s-4.28-10.13-9.55-10.13c-.47 0-.92-.25-1.38-.18.24-.83.37-1.86.37-2.77 0-5.27-4.28-9.62-9.55-9.62-1 0-1.96.12-2.87.4-1.13-4.02-4.81-6.99-9.19-6.99-5.27 0-9.55 4.27-9.55 9.54 0 .39.03.76.08 1.14-.52-.09-1.04-.14-1.58-.14-5.25 0-9.51 4.24-9.55 9.48a9.472 9.472 0 0 0-5.03-1.44c-5.27 0-9.55 5.44-9.55 10.72s4.28 10.72 9.55 10.72h48.25zM71.65 46.02a9.42 9.42 0 0 1-8.97 6.53"/></g><path fill="none" stroke="#000" stroke-width="2" stroke-linejoin="round" stroke-miterlimit="10" d="M45.94 29.45c-1.96-7.09-8.13-12.27-15.39-12.94a13.81 13.81 0 0 1 2.83 8.4c0 7.68-6.25 13.93-13.93 13.93-2.9 0-5.68-.89-8.05-2.58.65 5.23 3.56 9.86 8.02 12.7"/></svg>