<svg xmlns="http://www.w3.org/2000/svg" width="90" height="90" viewBox="0 0 90 90"><g fill="none" stroke="#000" stroke-width="2" stroke-linecap="round" stroke-linejoin="round" stroke-miterlimit="10"><path d="M73.95 67.33c5.28 0 9.55-5.05 9.55-10.32 0-5.28-4.28-9.93-9.55-9.93-.47 0-.92-.15-1.38-.08.24-.83.37-1.81.37-2.72 0-5.27-4.28-9.6-9.55-9.6-1 0-1.96.13-2.87.42-1.13-4.02-4.81-6.99-9.19-6.99-5.27 0-9.55 4.27-9.55 9.55 0 .39.03.76.08 1.14-.52-.09-1.04-.14-1.58-.14-5.25 0-9.51 4.24-9.55 9.48a9.472 9.472 0 0 0-5.03-1.44c-5.27 0-9.55 5.04-9.55 10.32s4.28 10.32 9.55 10.32h48.25zM72.61 46.82a9.42 9.42 0 0 1-8.97 6.53"/></g><path fill="none" stroke="#000" stroke-width="2" stroke-linecap="round" stroke-miterlimit="10" d="M42.83 32.13c-2.14-4.18-6.49-7.05-11.51-7.05-7.14 0-12.92 5.78-12.92 12.92 0 3.39 1.31 6.48 3.44 8.78"/><g fill="none" stroke="#000" stroke-width="2" stroke-linecap="round" stroke-linejoin="round" stroke-miterlimit="10"><path d="M14.99 28.71l-3.77-2.25M26.77 19.71l-1.01-4.01M41.5 21.76l1.98-3.32M12.29 42.93l-3.79.96"/></g></svg>