<svg xmlns="http://www.w3.org/2000/svg" width="90" height="90" viewBox="0 0 90 90"><g fill="none" stroke="#000" stroke-width="2" stroke-linecap="round" stroke-linejoin="round" stroke-miterlimit="10"><path d="M54.83 68.29l-9.24 9.24M70.16 68.29l-9.24 9.24M39.5 68.29l-9.24 9.24M24.16 68.29l-9.24 9.24"/></g><g fill="none" stroke="#000" stroke-width="2" stroke-linecap="round" stroke-linejoin="round" stroke-miterlimit="10"><path d="M70.59 53.44c5.01-.61 9.16-5.65 9.16-10.79 0-5.48-4.32-10.39-9.8-10.39-.49 0-.9-.19-1.37-.12.25-.87.42-1.89.42-2.84 0-5.48-4.43-9.99-9.91-9.99-1.04 0-2.04.13-2.98.43-1.17-4.18-4.99-7.26-9.55-7.26-5.48 0-9.92 4.44-9.92 9.92 0 .4.03.8.08 1.19-.54-.09-1.08-.15-1.64-.15-5.46 0-9.88 4.41-9.92 9.85-1.52-.94-3.3-1.5-5.23-1.5-5.48 0-9.93 5.37-9.93 10.86s4.44 10.86 9.93 10.86H23M68.68 31.91a9.862 9.862 0 0 1-5.9 6.18"/></g><path fill="none" stroke="#000" stroke-width="2" stroke-linecap="round" stroke-linejoin="round" stroke-miterlimit="10" d="M64.52 60.5c3.7 0 6.69-5.04 6.69-8.74s-3-7.71-6.69-7.71c-.33 0-.65-.48-.96-.44.17-.58.26-1.45.26-2.09 0-3.7-3-6.82-6.69-6.82-.7 0-1.38.05-2.01.25-.79-2.82-3.37-4.92-6.44-4.92-3.7 0-6.69 2.98-6.69 6.67 0 .27.02.53.05.79-.36-.06-.73-.1-1.11-.1-3.68 0-6.66 2.97-6.69 6.64a6.61 6.61 0 0 0-3.52-1.01c-3.7 0-6.69 5.04-6.69 8.74s3 8.74 6.69 8.74h33.8z"/></svg>