<svg xmlns="http://www.w3.org/2000/svg" width="90" height="90" viewBox="0 0 90 90"><g fill="none" stroke="#74B3C9" stroke-width="4" stroke-linecap="round" stroke-linejoin="round" stroke-miterlimit="10"><path d="M54.16 68.29l-9.24 9.24M68.16 68.29l-9.24 9.24M40.16 68.29l-9.24 9.24M26.16 68.29l-9.24 9.24"/></g><path fill="#C6C6C5" d="M64.52 43.92c-.33 0-.65-.42-.96-.37.17-.58.26-1.42.26-2.06 0-3.7-3-6.8-6.69-6.8-.7 0-1.38.05-2.01.25-.79-2.82-3.37-4.92-6.44-4.92a6.675 6.675 0 0 0-6.64 7.48c-.36-.06-.73-.1-1.11-.1-3.68 0-6.66 2.97-6.69 6.64a6.61 6.61 0 0 0-3.52-1.01c-3.7 0-6.69 4.79-6.69 8.49 0 .48.05 1.23.15 1.74.65 3.38 3.33 7.25 6.54 7.25h33.81c3.25 0 5.96-3.96 6.56-7.37.08-.47.13-1.05.13-1.5-.01-3.7-3.01-7.72-6.7-7.72z"/><g fill="#868686"><path d="M19.93 55.5c-5.87 0-10.43-6.52-10.43-12.14 0-5.7 4.46-12.08 10.43-12.08 1.34 0 2.53.03 3.62.44a1.03 1.03 0 0 0 .83-.06c.25-.14.44-.38.5-.67 1.04-4.92 5.33-8.5 10.2-8.5.54 0 1.05-.42 1.07-.96.22-5.49 4.8-9.79 10.42-9.79 4.1 0 7.95 2.61 9.59 6.49.16.38.52.61.92.61.05 0 .11 0 .17-.01.57-.1 1.19-.1 1.84-.1 5.74 0 10.41 4.71 10.41 10.5 0 .41-.03.85-.09 1.29-.02.14-.01.27.03.4-.32 2.63-1.53 4.85-3.44 6.55-1.52-3.53-4.99-5.98-8.88-5.98h-.19c-1.76-3-4.87-4.57-8.26-4.57-4.52 0-8.46 3.23-9.45 7.57-3.14.56-5.83 2.69-7.14 5.6-.45-.07-.91-.09-1.37-.09-5.46 0-9.69 6.18-9.69 11.49 0 .02.02 2.35.2 3.31.04.22.09.45.15.69h-1.44zM74 52.13c0-4.16-2.64-9.12-6.85-10.71 3.1-2.18 5.22-5.45 5.89-9.21 4.15 1.46 7.08 5.69 7.08 10.27 0 3.94-2.12 7.67-6.12 9.69v-.04z"/></g></svg>