<svg xmlns="http://www.w3.org/2000/svg" width="90" height="90" viewBox="0 0 90 90"><g fill="none" stroke="#000" stroke-width="2" stroke-linecap="round" stroke-linejoin="round" stroke-miterlimit="10"><path d="M41.39 67.65l-5.24 5.24M55.26 67.65l-5.24 5.24M69.14 67.65l-5.24 5.24M27.51 67.65l-5.24 5.24"/></g><g fill="none" stroke="#000" stroke-width="2" stroke-linecap="round" stroke-linejoin="round" stroke-miterlimit="10"><path d="M73.13 61.91c5.28 0 9.55-5.64 9.55-10.91 0-5.28-4.28-10.23-9.55-10.23-.47 0-.92-.29-1.38-.23.24-.83.37-1.88.37-2.79 0-5.27-4.28-9.64-9.55-9.64-1 0-1.96.11-2.87.4-1.13-4.02-4.81-7-9.19-7-5.27 0-9.55 4.27-9.55 9.54 0 .39.03.76.08 1.14-.52-.09-1.04-.14-1.58-.14-5.25 0-9.51 4.24-9.55 9.48a9.472 9.472 0 0 0-5.03-1.44c-5.27 0-9.55 5.64-9.55 10.91 0 5.27 4.28 10.91 9.55 10.91h48.25zM71.8 40.21a9.42 9.42 0 0 1-8.97 6.53"/></g><path fill="none" stroke="#000" stroke-width="2" stroke-linejoin="round" stroke-miterlimit="10" d="M45.94 23.45c-1.96-7.09-8.13-12.27-15.39-12.94a13.81 13.81 0 0 1 2.83 8.4c0 7.68-6.25 13.93-13.93 13.93-2.9 0-5.68-.89-8.05-2.58.65 5.23 3.56 9.86 8.02 12.7"/></svg>