<svg xmlns="http://www.w3.org/2000/svg" width="90" height="90" viewBox="0 0 90 90"><g fill="none" stroke="#74B3C9" stroke-width="4" stroke-linecap="round" stroke-linejoin="round" stroke-miterlimit="10"><path d="M44.19 71.68l-3.24 3.24M58.07 71.68l-3.24 3.24M71.94 71.68l-3.24 3.24M30.32 71.68l-3.24 3.24"/></g><path fill="#C6C6C5" d="M79.17 43.17c-.6 6.15-5.29 11.45-11.67 12.45-.42.07-.83.11-1.25.14l-.9.02a1.451 1.451 0 0 1 0-2.9l.84.03c.29-.02.59.02.88-.03 5.19-.81 8.94-5.21 9.32-10.23.03-.3.04-.61.04-.91 0-6.09-4.96-11.05-11.05-11.05-.64 0-1.28.03-1.91.15-1.72-4-5.71-6.55-10.15-6.55-5.93 0-10.78 4.65-11.04 10.65h-.02c-5.27 0-9.72 3.65-10.8 8.62-1.21-.44-2.48-.67-3.78-.67-6.2 0-11.05 4.93-11.05 11.03s4.85 11.03 11.05 11.03h48.24c6.2 0 11.05-4.98 11.05-11.08.02-4.96-3.28-9.32-7.8-10.7z"/><path fill="#FFB200" d="M26.69 38.76c.61 0 1.22.04 1.83.12 1.88-4.05 5.64-7.06 10.13-7.91.7-2.93 2.33-5.5 4.56-7.4-2.77-2.59-6.48-4.19-10.57-4.19-8.56 0-15.5 6.94-15.5 15.5 0 2.27.5 4.41 1.37 6.35 2.22-1.59 4.99-2.47 8.18-2.47z"/><path fill="none" stroke="#FFB200" stroke-width="4" stroke-linecap="round" stroke-linejoin="round" stroke-miterlimit="10" d="M27.23 13.38l-.99-3.88M44.58 15.99l2.45-4.12M13.9 24.51l-4.12-2.44M10.63 41.35l-3.88.98"/></svg>