<svg xmlns="http://www.w3.org/2000/svg" width="90" height="90" viewBox="0 0 90 90"><g fill="none" stroke="#000" stroke-width="2" stroke-linecap="round" stroke-linejoin="round" stroke-miterlimit="10"><path d="M16.86 38.12l4.17 7.13-4.17 7.12M36.1 16.56l-4.09 7.17-8.25-.05M66.66 23.43l-8.26.05-4.08-7.17M73.99 51.87l-4.17-7.12 4.17-7.13M54.75 73.44l4.09-7.17 8.25.05M24.19 66.57l8.26-.05 4.08 7.17M13.62 45.5h63M28.59 17.31l33.5 55.09M62.26 17.31L28.76 72.4"/></g><path fill="none" stroke="#000" stroke-width="2" stroke-linecap="round" stroke-linejoin="round" stroke-miterlimit="10" d="M36.99 61.5L28.64 47l8.35-14.5h16.7L62.03 47l-8.34 14.5z"/></svg>