<svg xmlns="http://www.w3.org/2000/svg" width="90" height="90" viewBox="0 0 90 90"><g fill="none" stroke="#74B3C9" stroke-width="4" stroke-linecap="round" stroke-linejoin="round" stroke-miterlimit="10"><path d="M57.62 55.05l-4.74 4.74M68.62 55.05l-4.74 4.74"/></g><path fill="#FFD765" d="M31.49 59.5h-7.72l5.17-7h19.74L21.63 79.61z"/><path fill="#C6C6C5" d="M72.19 28.14c-.6 6.15-5.29 11.45-11.67 12.45-.42.07-.83.11-1.25.14l-.9.02a1.451 1.451 0 0 1 0-2.9l.84.03c.29-.02.59.02.88-.03 5.19-.81 8.94-5.21 9.32-10.23.03-.3.04-.61.04-.91 0-6.09-4.96-11.05-11.05-11.05-.64 0-1.28.03-1.91.15-1.72-4-5.71-6.74-10.15-6.74-5.93 0-10.78 4.46-11.04 10.46h-.02c-5.27 0-9.72 3.84-10.8 8.81-1.21-.44-2.48-.57-3.78-.57-6.2 0-11.05 4.78-11.05 10.88 0 6.1 4.85 10.88 11.05 10.88h48.24c6.2 0 11.05-4.78 11.05-10.88.01-4.96-3.29-9.13-7.8-10.51z"/></svg>