<svg xmlns="http://www.w3.org/2000/svg" width="90" height="90" viewBox="0 0 90 90"><path clip-rule="evenodd" fill="none" stroke="#C6C6C5" stroke-width="4" stroke-linecap="round" stroke-linejoin="round" stroke-miterlimit="10" d="M76.83 44.04c.44 9.56-3.59 18.29-10.25 24.16M13.18 46.96c-.45-9.77 3.78-18.67 10.7-24.55"/><path fill="#C6C6C5" d="M49.64 75.57c-15.14 0-28.42-13.21-28.42-28.26v-.52c0-12.43 10.89-22.93 23.78-22.93.34 0 .68.01 1.03.02a24.222 24.222 0 0 0-11.21-5.89l-6.64-1.47 6.64-1.46c1.91-.42 3.9-.64 5.89-.64 14.95 0 28.07 13.12 28.07 28.07v1.57c0 12.17-10.67 22.07-23.78 22.07-.23 0-.46 0-.69-.01a24.52 24.52 0 0 0 11.3 5.86l6.65 1.46-6.64 1.47c-1.94.44-3.95.66-5.98.66z"/></svg>