<svg xmlns="http://www.w3.org/2000/svg" width="90" height="90" viewBox="0 0 90 90"><path clip-rule="evenodd" fill="none" stroke="#000" stroke-width="2" stroke-linecap="round" stroke-linejoin="round" stroke-miterlimit="10" d="M76.83 44.04c.44 9.56-3.59 18.29-10.25 24.16M13.18 46.96c-.45-9.77 3.78-18.67 10.7-24.55"/><path clip-rule="evenodd" fill="none" stroke="#000" stroke-width="2" stroke-miterlimit="10" d="M22.72 46.79v.52c0 14.31 12.53 26.76 26.92 26.76 1.94 0 3.83-.21 5.65-.61a26.012 26.012 0 0 1-14.86-9.31c1.47.32 3.01.49 4.58.49 11.84 0 22.28-8.73 22.28-20.57V42.5c0-14.2-12.37-26.57-26.57-26.57-1.91 0-3.78.21-5.57.6a25.736 25.736 0 0 1 14.78 9.39c-1.58-.37-3.22-.57-4.92-.57-11.85.01-22.29 9.6-22.29 21.44z"/></svg>