<svg xmlns="http://www.w3.org/2000/svg" width="90" height="90" viewBox="0 0 90 90"><path fill="none" stroke="#000" stroke-width="2" stroke-linecap="round" stroke-linejoin="round" stroke-miterlimit="10" d="M10.88 54.63c2.87-.82 13.91-1.77 20.69-1.08 4.06.41 8.3 1.1 11.91 3.11 4.05 2.26 6.62 6.12 6.62 10.74 0 5.05-3.65 9.54-8.6 10.56-4.94 1.01-10.04-1.64-12.05-6.25-.94-2.15-1.04-4.36-.5-6.58-.3 2.51 1.22 5.13 3.7 6.02a5.534 5.534 0 0 0 7.08-3.34c.87-2.42-.05-5.04-2.07-6.43-3.14-2.31-8.98-4.23-12.02-4.89-4.01-.88-10.7-1.4-14.76-1.86M21.88 38.92c3.27.93 15.83 2.01 23.54 1.23 4.62-.47 9.45-1.25 13.56-3.53 4.61-2.57 7.53-6.97 7.53-12.22 0-5.74-4.16-10.86-9.79-12.01-5.62-1.15-11.42 1.87-13.71 7.12-1.07 2.45-1.19 4.96-.57 7.49-.34-2.85 1.39-5.84 4.21-6.85 3.27-1.17 6.88.53 8.05 3.8.99 2.75-.06 5.73-2.36 7.31-3.57 2.63-10.22 4.81-13.67 5.56-4.55.98-12.17 1.56-16.79 2.1M75.97 34.56c-3.1 6.75-11.44 12.23-21.79 13.49-4.67.57-9.14.2-13.08-.9 3.13 2.86 7.44 5.1 12.43 6.2 11.48 2.51 22.23-2.02 24.01-10.14.64-2.91.01-5.9-1.57-8.65z"/></svg>